<?xml version="1.0" encoding="UTF-8" standalone="no"?>
<svg
   xmlns:dc="http://purl.org/dc/elements/1.1/"
   xmlns:cc="http://creativecommons.org/ns#"
   xmlns:rdf="http://www.w3.org/1999/02/22-rdf-syntax-ns#"
   xmlns:svg="http://www.w3.org/2000/svg"
   xmlns="http://www.w3.org/2000/svg"
   viewBox="0 0 666.66669 666.66669"
   height="666.66669"
   width="666.66669"
   xml:space="preserve"
   id="svg2"
   version="1.1"><metadata
     id="metadata8"><rdf:RDF><cc:Work
         rdf:about=""><dc:format>image/svg+xml</dc:format><dc:type
           rdf:resource="http://purl.org/dc/dcmitype/StillImage" /></cc:Work></rdf:RDF></metadata><defs
     id="defs6"><clipPath
       id="clipPath26"
       clipPathUnits="userSpaceOnUse"><path
         id="path24"
         d="M 0,500 H 500 V 0 H 0 Z" /></clipPath></defs><g
     transform="matrix(1.3333333,0,0,-1.3333333,0,666.66667)"
     id="g10"><g
       transform="translate(288.4209,55.2002)"
       id="g12"><path
         id="path14"
         style="fill:#a74447;fill-opacity:1;fill-rule:nonzero;stroke:none"
         d="M 0,0 -228.956,39.581 V 348.467 L 0,389.6 Z" /></g><g
       transform="translate(163.5996,298.8936)"
       id="g16"><path
         id="path18"
         style="fill:#ffffff;fill-opacity:1;fill-rule:nonzero;stroke:none"
         d="m 0,0 14.874,-61.44 h -29.08 L 0,0 l -19.153,-84.409 40.452,-1.455 8.731,-34.341 29.684,-1.746 -43.362,148.129 -30.558,-2.036 -39.288,-138.818 26.201,-2.029 8.14,32.296" /></g><g
       id="g20"><g
         clip-path="url(#clipPath26)"
         id="g22"><g
           transform="translate(331.9014,173.1973)"
           id="g28"><path
             id="path30"
             style="fill:#a74447;fill-opacity:1;fill-rule:nonzero;stroke:none"
             d="m 0,0 c -16.117,0 -33.586,1.198 -52.229,3.59 l 1.975,15.395 c 63.928,-8.2 100.384,-0.232 119.712,7.897 18.814,7.914 24.57,17.171 24.62,17.261 l 13.591,-7.497 C 106.895,35.241 99.415,22.643 75.476,12.574 61.897,6.863 45.549,3.048 26.884,1.234 18.414,0.41 9.438,0 0,0" /></g><g
           transform="translate(331.9014,242.2441)"
           id="g32"><path
             id="path34"
             style="fill:#a74447;fill-opacity:1;fill-rule:nonzero;stroke:none"
             d="m 0,0 c -16.117,0 -33.586,1.199 -52.229,3.59 l 1.975,15.395 c 63.928,-8.2 100.384,-0.231 119.712,7.897 18.814,7.914 24.57,17.171 24.62,17.261 l 13.591,-7.497 C 106.895,35.242 99.415,22.643 75.476,12.575 61.897,6.864 45.549,3.049 26.884,1.234 18.414,0.411 9.438,0 0,0" /></g><g
           transform="translate(331.9014,317.3164)"
           id="g36"><path
             id="path38"
             style="fill:#a74447;fill-opacity:1;fill-rule:nonzero;stroke:none"
             d="m 0,0 c -16.117,0 -33.586,1.198 -52.229,3.589 l 1.975,15.396 c 63.928,-8.2 100.384,-0.232 119.712,7.897 18.814,7.914 24.57,17.17 24.62,17.261 l 13.591,-7.497 C 106.895,35.242 99.415,22.643 75.476,12.574 61.897,6.863 45.549,3.048 26.884,1.234 18.414,0.411 9.438,0 0,0" /></g><g
           transform="translate(331.9014,103.0986)"
           id="g40"><path
             id="path42"
             style="fill:#a74447;fill-opacity:1;fill-rule:nonzero;stroke:none"
             d="m 0,0 c -16.117,0 -33.586,1.199 -52.229,3.591 l 1.975,15.395 C 12.151,10.981 48.26,18.44 67.562,26.107 83.415,32.405 90.65,39.824 93.112,42.859 v 213.084 c 0,5.045 -2.688,9.538 -8.218,13.737 -12.043,9.141 -36.668,15.712 -67.56,18.027 -29.899,2.239 -55.426,-0.063 -66.488,-3.151 l -4.173,14.95 c 15.306,4.272 44.17,5.75 71.82,3.679 15.607,-1.169 29.728,-3.344 41.972,-6.466 14.465,-3.686 25.842,-8.624 33.813,-14.677 4.444,-3.372 7.909,-7.155 10.301,-11.243 2.691,-4.599 4.055,-9.597 4.055,-14.856 V 38.396 l -0.965,-1.75 C 106.896,35.242 99.415,22.644 75.476,12.575 61.897,6.864 45.549,3.049 26.884,1.234 18.413,0.411 9.438,0 0,0" /></g></g></g></g></svg>