<?xml version="1.0" encoding="UTF-8" standalone="no"?>
<svg
   xmlns:dc="http://purl.org/dc/elements/1.1/"
   xmlns:cc="http://creativecommons.org/ns#"
   xmlns:rdf="http://www.w3.org/1999/02/22-rdf-syntax-ns#"
   xmlns:svg="http://www.w3.org/2000/svg"
   xmlns="http://www.w3.org/2000/svg"
   viewBox="0 0 1000 1000"
   height="1000"
   width="1000"
   xml:space="preserve"
   id="svg2"
   version="1.1"><metadata
     id="metadata8"><rdf:RDF><cc:Work
         rdf:about=""><dc:format>image/svg+xml</dc:format><dc:type
           rdf:resource="http://purl.org/dc/dcmitype/StillImage" /></cc:Work></rdf:RDF></metadata><defs
     id="defs6"><linearGradient
       id="linearGradient38"
       spreadMethod="pad"
       gradientTransform="matrix(527.0885,0,0,527.0885,111.45573,327.30713)"
       gradientUnits="userSpaceOnUse"
       y2="0"
       x2="1"
       y1="0"
       x1="0"><stop
         id="stop24"
         offset="0"
         style="stop-opacity:1;stop-color:#095ca2" /><stop
         id="stop26"
         offset="0.07"
         style="stop-opacity:1;stop-color:#0b61aa" /><stop
         id="stop28"
         offset="0.36"
         style="stop-opacity:1;stop-color:#2170b7" /><stop
         id="stop30"
         offset="0.52"
         style="stop-opacity:1;stop-color:#2974ba" /><stop
         id="stop32"
         offset="0.64"
         style="stop-opacity:1;stop-color:#2471b8" /><stop
         id="stop34"
         offset="0.82"
         style="stop-opacity:1;stop-color:#176ab3" /><stop
         id="stop36"
         offset="1"
         style="stop-opacity:1;stop-color:#095ca2" /></linearGradient><clipPath
       id="clipPath48"
       clipPathUnits="userSpaceOnUse"><path
         id="path46"
         d="M 0,750 H 750 V 0 H 0 Z" /></clipPath><radialGradient
       id="radialGradient80"
       spreadMethod="pad"
       gradientTransform="matrix(290.67987,0,0,290.67987,389.80124,310.45016)"
       gradientUnits="userSpaceOnUse"
       r="1"
       cy="0"
       cx="0"
       fy="0"
       fx="0"><stop
         id="stop74"
         offset="0"
         style="stop-opacity:1;stop-color:#f2f2f2" /><stop
         id="stop76"
         offset="0.58"
         style="stop-opacity:1;stop-color:#efeeee" /><stop
         id="stop78"
         offset="1"
         style="stop-opacity:1;stop-color:#e7e6e6" /></radialGradient></defs><g
     transform="matrix(1.3333333,0,0,-1.3333333,0,1000)"
     id="g10"><g
       id="g12"><g
         id="g14"><g
           id="g20"><g
             id="g22"><path
               id="path40"
               style="fill:url(#linearGradient38);stroke:none"
               d="m 375,533.702 c -145.545,0 -263.544,41.114 -263.544,95.386 v 0 -508.176 c 0,-52.216 115.942,-94.564 259.843,-95.385 v 0 H 375 c 145.546,0 263.544,41.114 263.544,95.385 v 0 508.176 C 638.544,576.05 520.546,533.702 375,533.702" /></g></g></g></g><g
       id="g42"><g
         clip-path="url(#clipPath48)"
         id="g44"><g
           transform="translate(638.5439,629.0879)"
           id="g50"><path
             id="path52"
             style="fill:#e9e8e8;fill-opacity:1;fill-rule:nonzero;stroke:none"
             d="m 0,0 c 0,-53.038 -117.998,-95.386 -263.544,-95.386 -145.545,0 -263.544,41.115 -263.544,95.386 0,54.271 117.999,95.386 263.544,95.386 C -117.998,95.386 0,54.271 0,0" /></g><g
           transform="translate(577.2832,636.8999)"
           id="g54"><path
             id="path56"
             style="fill:#76cae7;fill-opacity:1;fill-rule:nonzero;stroke:none"
             d="m 0,0 c 0,-33.714 -90.862,-60.85 -202.283,-60.85 -111.421,0 -202.284,27.136 -202.284,60.85 0,33.714 90.863,60.438 202.284,60.438 C -90.862,60.438 0,33.303 0,0" /></g><g
           transform="translate(375,621.6875)"
           id="g58"><path
             id="path60"
             style="fill:#1c8ab4;fill-opacity:1;fill-rule:nonzero;stroke:none"
             d="M 0,0 C -54.259,1.386 -108.355,-6.541 -159.936,-23.436 -108.306,-40.016 -54.194,-47.528 0,-45.637 54.304,-47.228 108.458,-39.154 159.936,-21.791 108.208,-5.678 54.153,1.687 0,0" /></g></g></g><g
       id="g62"><g
         id="g64"><g
           id="g70"><g
             id="g72"><path
               id="path82"
               style="fill:url(#radialGradient80);stroke:none"
               d="M 194.507,404.192 C 183.206,395.477 176.781,381.863 177.239,367.6 v 0 c 0,-20.97 13.157,-37.414 41.115,-49.75 v 0 c 9.08,-3.852 17.643,-8.824 25.491,-14.8 v 0 c 3.89,-3.265 6.146,-8.079 6.167,-13.157 v 0 c 0.003,-5.064 -2.45,-9.814 -6.578,-12.745 v 0 c -5.596,-3.277 -12.026,-4.849 -18.502,-4.523 v 0 c -16.537,0.135 -32.463,6.272 -44.815,17.268 v 0 -38.237 c 13.577,-7.001 28.725,-10.398 43.992,-9.866 v 0 c 17.234,-1.024 34.312,3.753 48.516,13.566 v 0 c 10.171,9.634 15.2,23.502 13.568,37.415 v 0 c 0.197,10.526 -3.458,20.761 -10.279,28.78 v 0 c -9.607,10.118 -21.233,18.103 -34.124,23.435 v 0 c -7.642,3.073 -14.725,7.378 -20.97,12.745 v 0 c -3.349,3.542 -5.129,8.286 -4.933,13.158 v 0 c -0.257,4.91 2.085,9.593 6.166,12.334 v 0 c 5.058,3.499 11.127,5.233 17.269,4.933 v 0 c 14.644,0.659 29.095,-3.533 41.114,-11.923 v 0 35.359 c -13.135,4.887 -27.109,7.123 -41.114,6.579 v 0 c -1.197,0.063 -2.393,0.095 -3.586,0.095 v 0 c -14.888,0 -29.395,-4.93 -41.229,-14.074 m 148.424,1.233 C 330.238,398.342 319.827,387.788 312.917,375 v 0 c -7.278,-14.537 -10.945,-30.615 -10.69,-46.87 v 0 c 0.086,-14.281 3.462,-28.351 9.868,-41.116 v 0 c 6.274,-12.699 16.139,-23.278 28.369,-30.424 v 0 c 12.418,-7.574 26.578,-11.822 41.114,-12.335 v 0 l 35.359,-41.113 h 49.748 l -50.571,45.226 c 17.03,5.106 31.634,16.206 41.116,31.247 v 0 c 9.334,15.635 14.039,33.599 13.567,51.804 v 0 C 469.868,346.83 465.212,361.785 457.23,375 v 0 c -6.419,12.84 -16.415,23.548 -28.781,30.836 v 0 c -12.532,7.103 -26.71,10.789 -41.115,10.69 v 0 c -0.635,0.014 -1.271,0.021 -1.906,0.021 v 0 c -14.875,10e-4 -29.511,-3.825 -42.497,-11.122 m 73.594,-32.892 c 8.101,-12.121 12,-26.564 11.102,-41.114 v 0 c 1.434,-14.79 -2.668,-29.586 -11.513,-41.526 v 0 c -7.589,-9.423 -19.152,-14.75 -31.247,-14.39 v 0 c -12.192,-0.394 -23.827,5.117 -31.246,14.801 v 0 c -8.691,11.874 -12.913,26.433 -11.923,41.115 v 0 c -0.955,14.677 3.263,29.224 11.923,41.114 v 0 c 7.837,9.662 19.628,15.255 32.069,15.212 v 0 c 12.202,0.527 23.828,-5.209 30.835,-15.212 m 81.819,43.582 V 246.311 h 101.141 v 30.014 h -64.138 v 139.79 z" /></g></g></g></g></g></svg>